Coordinates
version=1
nRows=14
nColumns=36
inDegrees=yes

Units are S.I. units (second, meters, Newtons, ...)
If the header above contains a line with 'inDegrees', this indicates whether rotational values are in degrees (yes) or radians (no).

endheader
time	pelvis_tilt	pelvis_list	pelvis_rotation	pelvis_tx	pelvis_ty	pelvis_tz	hip_flexion_r	hip_adduction_r	hip_rotation_r	knee_angle_r	knee_angle_r_beta	ankle_angle_r	subtalar_angle_r	mtp_angle_r	hip_flexion_l	hip_adduction_l	hip_rotation_l	knee_angle_l	knee_angle_l_beta	ankle_angle_l	subtalar_angle_l	mtp_angle_l	lumbar_extension	lumbar_bending	lumbar_rotation	arm_flex_r	arm_add_r	arm_rot_r	elbow_flex_r	pro_sup_r	arm_flex_l	arm_add_l	arm_rot_l	elbow_flex_l	pro_sup_l
     30.36666670	     -7.47122525	     -1.20716442	     -3.27621994	      1.08838548	      0.90453213	      0.69133507	     33.51761043	     -0.54304719	      2.50767834	      7.94276793	      0.13862745	      8.70623579	      7.13081820	     -7.49999987	      2.41081343	     -1.82730974	      0.45275897	     20.04161593	      0.34979219	     21.93968084	     -3.65193015	     -7.49999987	    -10.11033079	      2.30771542	     -1.31492219	      0.41936866	    -13.46267968	      8.63553568	     26.40384385	     80.97896933	     10.85087476	    -12.49223168	     13.73103071	     32.91279944	     79.37666322
     30.38333330	     -7.26660871	     -1.59553246	     -3.03494611	      1.08945793	      0.89979729	      0.69240149	     32.68527405	      0.13146477	      2.86724072	      8.25505351	      0.14407786	      7.28503848	      6.87099333	     -7.49999987	      1.07675139	     -2.42659781	     -0.04426195	     19.97336706	      0.34860102	     22.77235321	     -2.82876024	     -7.49999987	     -9.99238303	      2.67071700	     -1.08559814	      0.58569576	    -13.55859348	      8.85544072	     25.10765119	     80.98263757	     11.66526754	    -12.20422431	     15.09538517	     30.93099476	     79.34614652
     30.40000000	     -6.99116349	     -1.99836179	     -2.80477513	      1.09011659	      0.89684409	      0.69426903	     31.81503001	      0.75350488	      2.99614274	      8.92982239	      0.15585480	      5.72722373	      6.53617860	     -7.49999987	     -0.13294394	     -2.98548139	     -0.28387112	     20.25713489	      0.35355370	     23.26394210	     -2.69110223	     -7.49999987	    -10.10220241	      3.20427966	     -1.21877698	      0.71393812	    -13.77374680	      8.89573493	     24.52906723	     81.15843392	     11.90184659	    -11.98136245	     15.47020323	     29.92784509	     79.46106394
     30.41666670	     -6.63268270	     -2.32714381	     -2.79490755	      1.09228935	      0.89803510	      0.69711586	     30.91387334	      1.38648941	      3.29605942	      9.86749272	      0.17222024	      4.20258574	      5.91177285	     -7.49999987	     -1.32612807	     -3.46723349	     -0.76151468	     20.81355015	      0.36326498	     23.43304319	     -2.63599214	     -7.49999987	    -10.20859552	      3.67784271	     -1.16519796	      0.95694125	    -13.99666876	      9.01582692	     23.51922440	     81.36931855	     12.19622985	    -11.60280452	     15.74937254	     28.40005047	     79.55495534
     30.43333330	     -6.16646718	     -2.68162767	     -2.92427269	      1.09679794	      0.90204359	      0.70037082	     29.83227781	      2.07088106	      3.60580844	     10.83982140	      0.18919057	      2.78944105	      5.24385588	     -7.49999987	     -2.61125375	     -3.94128992	     -1.28158924	     21.52983278	      0.37576647	     22.99036007	     -2.91963076	     -7.49999987	    -10.32330480	      4.22252026	     -1.00172074	      1.22585980	    -14.27410147	      9.10989458	     22.57062525	     81.54500587	     12.21498171	    -11.14111019	     15.73630779	     26.88560272	     79.54614455
     30.45000000	     -5.56925458	     -3.15372445	     -3.14121984	      1.10253632	      0.90636157	      0.70380612	     28.49064894	      2.88102966	      3.95900734	     11.73829283	      0.20487186	      1.67574045	      4.45564013	     -7.49999987	     -3.99920829	     -4.53712440	     -1.88759500	     22.51466927	      0.39295511	     21.94129102	     -3.45902894	     -7.49999987	    -10.44317087	      4.93030347	     -0.76037913	      1.53184788	    -14.59405795	      9.15331507	     21.68422562	     81.66120533	     11.96258238	    -10.53934043	     15.33765285	     25.40157931	     79.38245907
     30.46666670	     -4.95675582	     -3.75566355	     -3.42027316	      1.10769958	      0.90895116	      0.70683797	     27.07023943	      3.82434517	      4.31861220	     12.64053266	      0.22061891	      1.08568739	      3.61589862	     -7.49999987	     -5.23906034	     -5.29070083	     -2.42804987	     23.93223182	      0.41769624	     20.34619048	     -4.24983958	     -7.49999987	    -10.52881867	      5.77162576	     -0.43625380	      1.81438836	    -14.93806162	      9.16899386	     20.93675456	     81.70967970	     11.46302845	     -9.85251137	     14.57386021	     24.06251938	     79.06713071
     30.48333330	     -4.38196505	     -4.43979631	     -3.73201753	      1.11155283	      0.90958659	      0.70902935	     25.68552498	      4.84438520	      4.66677774	     13.62835355	      0.23785964	      1.09784830	      2.72101817	     -7.49999987	     -6.05368543	     -6.17654778	     -2.82952637	     26.02048767	      0.45414318	     18.25790244	     -5.34888815	     -7.49999987	    -10.60900207	      6.67940550	     -0.05578595	      2.04677194	    -15.29753238	      9.16769323	     20.36745000	     81.69514581	     10.83388791	     -9.13492751	     13.59071973	     22.95754236	     78.67404790
     30.50000000	     -3.83569529	     -5.07878267	     -4.09142518	      1.11513730	      0.91041866	      0.71124765	     24.31639983	      5.84553045	      5.11462545	     14.71548237	      0.25683362	      1.79734186	      1.81589420	     -7.49999987	     -6.26525444	     -7.06888992	     -3.09922810	     29.00766424	      0.50627925	     15.64777150	     -6.68536865	     -7.49999987	    -10.74634025	      7.51797505	      0.34279025	      2.27443832	    -15.60711639	      9.19413668	     19.91703367	     81.62362443	     10.11690413	     -8.43111839	     12.16038733	     21.95203156	     78.15913198
     30.51666670	     -3.21945527	     -5.67742042	     -4.35844485	      1.11909310	      0.91363294	      0.71443025	     22.71597869	      6.76913136	      5.59180585	     15.63979811	      0.27296597	      2.94128178	      1.01018251	     -7.49999987	     -5.90496146	     -8.00687263	     -3.27739204	     32.83647912	      0.57310468	     12.38938848	     -7.97919407	     -7.49999987	    -11.07118684	      8.25422358	      0.85440555	      2.39742638	    -15.92321552	      9.22650111	     19.60195759	     81.47003599	      9.45634762	     -7.89031487	     11.14992619	     21.27769924	     77.78406690
     30.53333330	     -2.53178583	     -6.18856772	     -4.52498073	      1.12277129	      0.91920397	      0.71886728	     20.79513389	      7.59006900	      6.13814185	     16.12727799	      0.28147410	      4.32715552	      0.40222165	     -7.49999987	     -5.12352570	     -8.92964428	     -3.38701611	     37.14626474	      0.64832462	      8.74892138	     -9.01769101	     -7.49999987	    -11.48271302	      8.85111120	      1.49038726	      2.49936202	    -16.19579271	      9.26522564	     19.27768182	     81.38863471	      8.95035838	     -7.46978442	     10.52065760	     20.68405427	     77.58630886
     30.55000000	     -1.80911664	     -6.53806886	     -4.67293556	      1.12588671	      0.92561990	      0.72405026	     18.67951183	      8.25337068	      6.70672092	     16.26612148	      0.28389738	      5.63997698	      0.08027549	     -7.49999987	     -4.20836288	     -9.63285585	     -3.33675960	     41.25891139	      0.72010385	      5.02110929	    -10.01237505	     -7.49999987	    -11.92325471	      9.19437064	      2.06290646	      2.75669640	    -16.30142592	     10.00695070	     18.56129305	     79.77319341	      8.56790886	     -7.01595783	      9.33252057	     19.63299256	     76.17144201
     30.56666670	     -1.03049553	     -6.78815639	     -4.62479465	      1.12867363	      0.93041867	      0.72835254	     16.31011416	      8.75039862	      7.14252435	     15.96222640	      0.27859341	      6.50102420	     -0.21719906	     -7.49999987	     -3.21256598	    -10.13271053	     -2.96963693	     45.06552892	      0.78654186	      1.69084745	    -11.02688600	     -7.49999987	    -12.43094491	      9.45535269	      2.73115938	      2.71933396	    -16.40596725	     10.10711667	     18.26294627	     79.78565874	      8.25935401	     -6.82857012	      9.03707997	     19.10639697	     76.21173300
     30.58333330	     -0.42860478	     -6.79311760	     -4.66138989	      1.13039294	      0.93206544	      0.73140830	     14.11562930	      9.02287348	      7.59811160	     15.60377404	      0.27233723	      7.33493062	     -0.26256844	     -7.49999987	     -1.94269770	    -10.38261050	     -2.77729331	     48.60562895	      0.84832826	     -0.45382586	    -11.15060668	     -7.49999987	    -12.69104477	      9.37296577	      3.28118476	      2.67034660	    -16.29181303	     10.16313750	     18.10818697	     79.77746427	      7.82831658	     -6.86289776	      8.93904036	     18.82283314	     76.19548078
